<mxfile host="app.diagrams.net" modified="2022-08-22T11:44:23.423Z" agent="5.0 (X11; Linux x86_64) AppleWebKit/537.36 (KHTML, like Gecko) Chrome/98.0.4758.80 Safari/537.36" etag="fYdj5y3Wa1WulNfhCIJV" version="20.2.6" type="github">
  <diagram id="iB6Y7332eGES3wEk8I8p" name="Page-1">
    <mxGraphModel dx="1422" dy="686" grid="1" gridSize="10" guides="1" tooltips="1" connect="1" arrows="1" fold="1" page="1" pageScale="1" pageWidth="827" pageHeight="1169" math="0" shadow="0">
      <root>
        <mxCell id="0" />
        <mxCell id="1" parent="0" />
        <mxCell id="Zt7vqsjKzgDt0nQp4eIY-4" value="" style="swimlane;startSize=0;shadow=1;sketch=1;fillColor=#ffcc99;strokeColor=#36393d;" parent="1" vertex="1">
          <mxGeometry x="380" y="230" width="480" height="480" as="geometry" />
        </mxCell>
        <mxCell id="Zt7vqsjKzgDt0nQp4eIY-6" value="" style="whiteSpace=wrap;html=1;aspect=fixed;rounded=1;shadow=1;sketch=1;fillColor=#ffcc99;strokeColor=#36393d;" parent="Zt7vqsjKzgDt0nQp4eIY-4" vertex="1">
          <mxGeometry x="120" width="120" height="120" as="geometry" />
        </mxCell>
        <mxCell id="Zt7vqsjKzgDt0nQp4eIY-7" value="" style="whiteSpace=wrap;html=1;aspect=fixed;rounded=1;shadow=1;sketch=1;fillColor=#ffff88;strokeColor=#36393d;" parent="Zt7vqsjKzgDt0nQp4eIY-4" vertex="1">
          <mxGeometry x="240" width="120" height="120" as="geometry" />
        </mxCell>
        <mxCell id="Zt7vqsjKzgDt0nQp4eIY-10" value="" style="whiteSpace=wrap;html=1;aspect=fixed;rounded=1;shadow=1;sketch=1;fillColor=#dae8fc;strokeColor=#6c8ebf;" parent="Zt7vqsjKzgDt0nQp4eIY-4" vertex="1">
          <mxGeometry x="120" y="120" width="120" height="120" as="geometry" />
        </mxCell>
        <mxCell id="Zt7vqsjKzgDt0nQp4eIY-11" value="" style="whiteSpace=wrap;html=1;aspect=fixed;rounded=1;shadow=1;sketch=1;fillColor=#ffcd28;gradientColor=#ffa500;strokeColor=#d79b00;" parent="Zt7vqsjKzgDt0nQp4eIY-4" vertex="1">
          <mxGeometry x="240" y="120" width="120" height="120" as="geometry" />
        </mxCell>
        <mxCell id="Zt7vqsjKzgDt0nQp4eIY-13" value="" style="whiteSpace=wrap;html=1;aspect=fixed;rounded=1;shadow=1;sketch=1;fillColor=#dae8fc;gradientColor=#7ea6e0;strokeColor=#6c8ebf;" parent="Zt7vqsjKzgDt0nQp4eIY-4" vertex="1">
          <mxGeometry x="120" y="235" width="120" height="120" as="geometry" />
        </mxCell>
        <mxCell id="Zt7vqsjKzgDt0nQp4eIY-14" value="" style="whiteSpace=wrap;html=1;aspect=fixed;rounded=1;shadow=1;sketch=1;fillColor=#d5e8d4;gradientColor=#97d077;strokeColor=#82b366;" parent="Zt7vqsjKzgDt0nQp4eIY-4" vertex="1">
          <mxGeometry x="240" y="235" width="120" height="120" as="geometry" />
        </mxCell>
        <mxCell id="Zt7vqsjKzgDt0nQp4eIY-16" value="" style="whiteSpace=wrap;html=1;aspect=fixed;rounded=1;shadow=1;sketch=1;fillColor=#e6d0de;gradientColor=#d5739d;strokeColor=#996185;" parent="Zt7vqsjKzgDt0nQp4eIY-4" vertex="1">
          <mxGeometry x="360" y="120" width="120" height="120" as="geometry" />
        </mxCell>
        <mxCell id="Zt7vqsjKzgDt0nQp4eIY-17" value="" style="whiteSpace=wrap;html=1;aspect=fixed;rounded=1;shadow=1;sketch=1;fillColor=#ffff88;strokeColor=#36393d;" parent="Zt7vqsjKzgDt0nQp4eIY-4" vertex="1">
          <mxGeometry x="120" y="355" width="120" height="120" as="geometry" />
        </mxCell>
        <mxCell id="Zt7vqsjKzgDt0nQp4eIY-38" value="Не заполнено" style="whiteSpace=wrap;html=1;aspect=fixed;rounded=1;shadow=1;sketch=1;" parent="Zt7vqsjKzgDt0nQp4eIY-4" vertex="1">
          <mxGeometry width="120" height="120" as="geometry" />
        </mxCell>
        <mxCell id="Zt7vqsjKzgDt0nQp4eIY-41" value="Не заполнено" style="whiteSpace=wrap;html=1;aspect=fixed;rounded=1;shadow=1;sketch=1;" parent="Zt7vqsjKzgDt0nQp4eIY-4" vertex="1">
          <mxGeometry y="120" width="120" height="120" as="geometry" />
        </mxCell>
        <mxCell id="Zt7vqsjKzgDt0nQp4eIY-42" value="Не заполнено" style="whiteSpace=wrap;html=1;aspect=fixed;rounded=1;shadow=1;sketch=1;" parent="Zt7vqsjKzgDt0nQp4eIY-4" vertex="1">
          <mxGeometry y="240" width="120" height="120" as="geometry" />
        </mxCell>
        <mxCell id="Zt7vqsjKzgDt0nQp4eIY-43" value="Не заполнено" style="whiteSpace=wrap;html=1;aspect=fixed;rounded=1;shadow=1;sketch=1;" parent="Zt7vqsjKzgDt0nQp4eIY-4" vertex="1">
          <mxGeometry y="360" width="120" height="120" as="geometry" />
        </mxCell>
        <mxCell id="Zt7vqsjKzgDt0nQp4eIY-20" value="" style="endArrow=classic;html=1;rounded=1;strokeWidth=3;strokeColor=#FF3333;jumpStyle=gap;" parent="1" edge="1">
          <mxGeometry width="50" height="50" relative="1" as="geometry">
            <mxPoint x="440" y="180" as="sourcePoint" />
            <mxPoint x="560" y="800" as="targetPoint" />
            <Array as="points">
              <mxPoint x="560" y="290" />
              <mxPoint x="560" y="410" />
              <mxPoint x="560" y="650" />
            </Array>
          </mxGeometry>
        </mxCell>
        <mxCell id="Zt7vqsjKzgDt0nQp4eIY-22" value="Кредитный отчет" style="rounded=1;whiteSpace=wrap;html=1;shadow=1;glass=1;sketch=1;" parent="1" vertex="1">
          <mxGeometry x="505" y="800" width="250" height="90" as="geometry" />
        </mxCell>
        <mxCell id="Zt7vqsjKzgDt0nQp4eIY-23" value="&lt;h1&gt;Титульная&lt;/h1&gt;&lt;p&gt;&lt;br&gt;&lt;/p&gt;" style="text;html=1;strokeColor=none;fillColor=none;spacing=5;spacingTop=-20;whiteSpace=wrap;overflow=hidden;rounded=0;shadow=1;glass=1;sketch=1;" parent="1" vertex="1">
          <mxGeometry x="190" y="230" width="190" height="120" as="geometry" />
        </mxCell>
        <mxCell id="Zt7vqsjKzgDt0nQp4eIY-24" value="&lt;h1&gt;Основная&lt;/h1&gt;&lt;p&gt;Пример: с указанием источников; без указания и&lt;span style=&quot;background-color: initial;&quot;&gt;сточников;&lt;/span&gt;&lt;/p&gt;" style="text;html=1;strokeColor=none;fillColor=none;spacing=5;spacingTop=-20;whiteSpace=wrap;overflow=hidden;rounded=0;shadow=1;glass=1;sketch=1;" parent="1" vertex="1">
          <mxGeometry x="190" y="350" width="190" height="120" as="geometry" />
        </mxCell>
        <mxCell id="Zt7vqsjKzgDt0nQp4eIY-25" value="&lt;h1&gt;&lt;font style=&quot;font-size: 21px;&quot;&gt;Информационная&lt;/font&gt;&lt;/h1&gt;&lt;p&gt;Пример: с указанием источников; без указания источников;&lt;/p&gt;" style="text;html=1;strokeColor=none;fillColor=none;spacing=5;spacingTop=-20;whiteSpace=wrap;overflow=hidden;rounded=0;shadow=1;glass=1;sketch=1;" parent="1" vertex="1">
          <mxGeometry x="190" y="465" width="190" height="120" as="geometry" />
        </mxCell>
        <mxCell id="Zt7vqsjKzgDt0nQp4eIY-26" value="&lt;h1&gt;Закрытая&lt;/h1&gt;&lt;p&gt;&lt;br&gt;&lt;/p&gt;" style="text;html=1;strokeColor=none;fillColor=none;spacing=5;spacingTop=-20;whiteSpace=wrap;overflow=hidden;rounded=0;shadow=1;glass=1;sketch=1;" parent="1" vertex="1">
          <mxGeometry x="190" y="590" width="190" height="120" as="geometry" />
        </mxCell>
        <mxCell id="Zt7vqsjKzgDt0nQp4eIY-28" value="Субъект" style="shape=process;whiteSpace=wrap;html=1;backgroundOutline=1;rounded=1;shadow=1;glass=1;sketch=1;fontSize=21;" parent="1" vertex="1">
          <mxGeometry x="380" y="120" width="120" height="60" as="geometry" />
        </mxCell>
        <mxCell id="Zt7vqsjKzgDt0nQp4eIY-29" value="Клиент" style="shape=process;whiteSpace=wrap;html=1;backgroundOutline=1;rounded=1;shadow=1;glass=1;sketch=1;fontSize=21;" parent="1" vertex="1">
          <mxGeometry x="505" y="120" width="120" height="60" as="geometry" />
        </mxCell>
        <mxCell id="Zt7vqsjKzgDt0nQp4eIY-30" value="&lt;font style=&quot;font-size: 14px;&quot;&gt;Управляющий&lt;/font&gt;" style="shape=process;whiteSpace=wrap;html=1;backgroundOutline=1;rounded=1;shadow=1;glass=1;sketch=1;fontSize=21;" parent="1" vertex="1">
          <mxGeometry x="625" y="120" width="120" height="60" as="geometry" />
        </mxCell>
        <mxCell id="Zt7vqsjKzgDt0nQp4eIY-31" value="ИП Ромашка" style="shape=process;whiteSpace=wrap;html=1;backgroundOutline=1;rounded=1;shadow=1;glass=1;sketch=1;fontSize=21;" parent="1" vertex="1">
          <mxGeometry x="745" y="120" width="120" height="60" as="geometry" />
        </mxCell>
        <mxCell id="Zt7vqsjKzgDt0nQp4eIY-35" value="" style="endArrow=classic;html=1;rounded=1;fontSize=21;strokeWidth=3;exitX=0.5;exitY=1;exitDx=0;exitDy=0;jumpStyle=sharp;strokeColor=#3333FF;entryX=0.068;entryY=-0.011;entryDx=0;entryDy=0;entryPerimeter=0;" parent="1" source="Zt7vqsjKzgDt0nQp4eIY-29" target="Zt7vqsjKzgDt0nQp4eIY-22" edge="1">
          <mxGeometry width="50" height="50" relative="1" as="geometry">
            <mxPoint x="550" y="90" as="sourcePoint" />
            <mxPoint x="670" y="40" as="targetPoint" />
            <Array as="points">
              <mxPoint x="560" y="280" />
              <mxPoint x="680" y="400" />
              <mxPoint x="440" y="650" />
            </Array>
          </mxGeometry>
        </mxCell>
        <mxCell id="Zt7vqsjKzgDt0nQp4eIY-45" value="" style="endArrow=classic;html=1;rounded=1;fontSize=21;strokeColor=#00CC00;strokeWidth=3;jumpStyle=arc;exitX=0.5;exitY=1;exitDx=0;exitDy=0;entryX=0.5;entryY=0;entryDx=0;entryDy=0;" parent="1" source="Zt7vqsjKzgDt0nQp4eIY-30" target="Zt7vqsjKzgDt0nQp4eIY-22" edge="1">
          <mxGeometry width="50" height="50" relative="1" as="geometry">
            <mxPoint x="1020" y="390" as="sourcePoint" />
            <mxPoint x="1070" y="340" as="targetPoint" />
            <Array as="points">
              <mxPoint x="680" y="290" />
              <mxPoint x="440" y="400" />
              <mxPoint x="440" y="550" />
              <mxPoint x="560" y="650" />
            </Array>
          </mxGeometry>
        </mxCell>
        <mxCell id="Zt7vqsjKzgDt0nQp4eIY-46" value="" style="endArrow=classic;html=1;rounded=1;fontSize=14;strokeColor=#FF9933;strokeWidth=3;jumpStyle=arc;exitX=0.5;exitY=1;exitDx=0;exitDy=0;entryX=0.75;entryY=0;entryDx=0;entryDy=0;" parent="1" source="Zt7vqsjKzgDt0nQp4eIY-31" target="Zt7vqsjKzgDt0nQp4eIY-22" edge="1">
          <mxGeometry width="50" height="50" relative="1" as="geometry">
            <mxPoint x="1050" y="380" as="sourcePoint" />
            <mxPoint x="1100" y="330" as="targetPoint" />
            <Array as="points">
              <mxPoint x="560" y="290" />
              <mxPoint x="420" y="410" />
              <mxPoint x="680" y="530" />
              <mxPoint x="420" y="650" />
            </Array>
          </mxGeometry>
        </mxCell>
        <mxCell id="Zt7vqsjKzgDt0nQp4eIY-48" value="" style="shape=curlyBracket;whiteSpace=wrap;html=1;rounded=1;shadow=1;glass=1;sketch=1;fontSize=14;" parent="1" vertex="1">
          <mxGeometry x="150" y="240" width="20" height="470" as="geometry" />
        </mxCell>
        <mxCell id="Zt7vqsjKzgDt0nQp4eIY-50" value="&lt;font style=&quot;font-size: 18px;&quot;&gt;&lt;b&gt;Способы &lt;br&gt;заполнения &lt;br&gt;частей КО&lt;/b&gt;&lt;/font&gt;" style="text;html=1;align=center;verticalAlign=middle;resizable=0;points=[];autosize=1;strokeColor=none;fillColor=none;fontSize=14;" parent="1" vertex="1">
          <mxGeometry x="10" y="440" width="130" height="80" as="geometry" />
        </mxCell>
      </root>
    </mxGraphModel>
  </diagram>
</mxfile>
